<svg width="92" height="34" viewBox="0 0 92 34" fill="none" xmlns="http://www.w3.org/2000/svg">
<g clip-path="url(#clip0_1_2)">
<path d="M26.24 31.93V0.26L13.15 21.33L0 0V31.8H4.32V15.96L12.96 29.9L21.79 15.83V31.86L26.24 31.93Z" fill="white"/>
<path d="M50.05 2.75L46.82 11.45H53.41L50.05 2.75Z" fill="white"/>
<path d="M35.2 1.57H30.49L34.5 11.45H39.15L35.2 1.57Z" fill="white"/>
<path d="M57.32 21.59L54.27 13.68H45.99L43.12 21.4L40.04 13.68H35.4L43.31 33.17L50.05 14.98L57.58 33.17L64.9 13.68H60.23L57.32 21.59Z" fill="white"/>
<path d="M69.42 1.64L64.71 1.5L61.05 11.45H65.74L69.42 1.64Z" fill="white"/>
<path d="M84.18 27.22C78.92 27.22 74.66 22.53 74.66 16.75C74.66 10.97 78.92 6.28 84.18 6.28C86.325 6.29934 88.3913 7.09104 90 8.51V3.09C88.1489 2.11808 86.0907 1.60696 84 1.6C76.31 1.6 70.07 8.39 70.07 16.75C70.07 25.11 76.32 31.9 84 31.9C86.8336 31.8935 89.5884 30.9671 91.85 29.26V22.91C91.0299 24.2087 89.8993 25.2828 88.5602 26.0353C87.2212 26.7877 85.7158 27.1949 84.18 27.22Z" fill="white"/>
</g>
<defs>
<clipPath id="clip0_1_2">
<rect width="91.86" height="33.17" fill="white"/>
</clipPath>
</defs>
</svg>
