<svg enable-background="new 0 0 15 15" viewBox="0 0 15 15" x="0" y="0" class="shopee-svg-icon account-coin-item-thumb"><linearGradient id="coingrey-a" gradientTransform="matrix(1 0 0 -1 0 -810.11)" gradientUnits="userSpaceOnUse" x1="2.9694" x2="12.0447" y1="-811.8111" y2="-823.427"><stop offset="0" stop-color="#c4c4c4"></stop><stop offset=".5306" stop-color="#f1f1f1"></stop><stop offset="1" stop-color="#c4c4c4"></stop></linearGradient><linearGradient id="coingrey-b" gradientTransform="matrix(1 0 0 -1 0 -810.11)" gradientUnits="userSpaceOnUse" x1="7.5" x2="7.5" y1="-810.2517" y2="-824.9919"><stop offset="0" stop-color="#b6b6b6"></stop><stop offset="1" stop-color="#b6b6b6"></stop></linearGradient><linearGradient id="coingrey-c" gradientTransform="matrix(1 0 0 -1 0 -810.11)" gradientUnits="userSpaceOnUse" x1="4.0932" x2="10.9068" y1="-813.5499" y2="-821.6702"><stop offset="0" stop-color="#b9b9b9"></stop><stop offset=".2243" stop-color="#bfbfbf"></stop><stop offset=".5015" stop-color="#d3d3d3"></stop><stop offset=".765" stop-color="#bfbfbf"></stop><stop offset="1" stop-color="#b9b9b9"></stop></linearGradient><linearGradient id="coingrey-d" gradientUnits="userSpaceOnUse" x1="5.4204" x2="9.7379" y1="5.0428" y2="10.188"><stop offset="0" stop-color="#dedede"></stop><stop offset=".5003" stop-color="#ffffff"></stop><stop offset="1" stop-color="#dedede"></stop></linearGradient><g><circle cx="7.5" cy="7.5" fill="url(#coingrey-a)" r="7.4"></circle><path d="m7.5.4c3.9 0 7.1 3.2 7.1 7.1s-3.2 7.1-7.1 7.1-7.1-3.2-7.1-7.1 3.2-7.1 7.1-7.1m0-.3c-4.1 0-7.4 3.3-7.4 7.4s3.3 7.4 7.4 7.4 7.4-3.3 7.4-7.4-3.3-7.4-7.4-7.4z" fill="url(#coingrey-b)"></path><path d="m14.4 7.7c0-.1 0-.1 0-.2 0-3.8-3.1-6.9-6.9-6.9s-6.9 3.1-6.9 6.9v.2c.1-3.7 3.1-6.7 6.9-6.7s6.8 3 6.9 6.7z" fill="#ffffff"></path><circle cx="7.5" cy="7.5" fill="url(#coingrey-c)" r="5.3"></circle><path d="m11.4 4c1.1 1 1.8 2.4 1.8 3.9 0 2.9-2.4 5.3-5.3 5.3-1.6 0-3-.7-3.9-1.8.9.8 2.2 1.4 3.5 1.4 2.9 0 5.3-2.4 5.3-5.3 0-1.4-.5-2.6-1.4-3.5z" fill="#eaeaea"></path><path d="m11.4 4c-1-1.1-2.4-1.8-3.9-1.8-2.9 0-5.3 2.4-5.3 5.3 0 1.6.7 3 1.8 3.9-.8-.9-1.4-2.2-1.4-3.5 0-2.9 2.4-5.3 5.3-5.3 1.4 0 2.6.5 3.5 1.4z" fill="#818181"></path><path d="m6.2 4.8c-.5.4-.6 1.1-.5 1.7.1.5.5 1 1.1 1.3.7.4 2.4.8 2.4 1.7 0 .2-.1.5-.2.6-.3.4-.8.5-1.3.5-.3 0-.7-.1-1-.2s-.6-.3-.9-.5c-.2-.1-.4 0-.5.1-.1.2 0 .4.1.5.5.4 1 .7 1.7.8.6.1 1.3.1 1.8-.2.5-.2.9-.6 1-1.2s-.1-1.2-.5-1.6c-.5-.5-2-1-2.4-1.3-.3-.2-.6-.5-.6-1 .1-.6.5-.9 1.1-.9.5 0 1.1.1 1.6.4.4.3.8-.4.4-.7-1-.6-2.5-.7-3.3 0z" fill="#909090"></path><path d="m6.1 4.5c-.5.4-.6 1.1-.5 1.7.1.5.5 1 1.1 1.3.7.4 2.4.8 2.4 1.7 0 .2-.1.5-.2.6-.3.4-.8.5-1.3.5-.3 0-.7-.1-1-.2s-.6-.3-.9-.5c-.2-.1-.4 0-.5.1-.1.2 0 .4.1.5.5.4 1 .7 1.7.8.6.1 1.3.1 1.8-.2.5-.2.9-.6 1-1.2s-.2-1.2-.6-1.6c-.5-.5-1.9-1-2.3-1.3-.3-.2-.6-.5-.6-1 .1-.6.5-.9 1.1-.9.5 0 1.1.1 1.6.4.4.3.8-.4.4-.7-1-.6-2.5-.7-3.3 0z" fill="url(#coingrey-d)"></path></g></svg>